<svg width="108" height="153" viewBox="0 0 108 153" fill="none" xmlns="http://www.w3.org/2000/svg">
<g filter="url(#filter0_i_2_700)">
<rect x="45.0526" y="93.1208" width="17.8947" height="51.5789" fill="url(#paint0_linear_2_700)"/>
</g>
<g filter="url(#filter1_d_2_700)">
<path d="M4.33592 82.7684C5.56636 77.2824 12.1165 71.5112 14.3978 69.6393C14.9036 69.2242 15.5361 69.0142 16.1905 69.0142H90.2915C90.8239 69.0142 91.3425 69.1526 91.7919 69.4381C93.9103 70.7839 100.295 75.1475 101.951 79.821C103.488 84.1626 105.668 88.8763 101.951 91.6104C99.7599 93.2215 97.5798 93.5922 95.0485 92.5928C93.275 91.8926 90.3839 92.3292 89.8228 94.1515C88.5505 98.2839 86.203 103.399 82.2304 104.382C76.5382 105.79 74.263 97.9128 68.4263 98.4875C61.1055 99.2084 61.9708 110.917 54.6222 111.259C47.4676 111.593 46.8446 101.906 39.8322 100.452C32.8808 99.0118 28.0961 108.146 22.084 104.382C17.4157 101.46 20.9718 94.306 16.168 91.6104C13.8678 90.3196 10.3337 90.5037 7.72652 90.8988C5.9184 91.1728 4.12099 89.9835 4.03791 88.1566C3.95913 86.4242 3.97863 84.3614 4.33592 82.7684Z" fill="#004964"/>
</g>
<g filter="url(#filter2_d_2_700)">
<path d="M9.93654 68.7169C11.0316 63.8422 16.8009 58.7173 18.9263 56.9666C19.4307 56.5511 20.0669 56.3381 20.7205 56.3381H87.3385C87.8702 56.3381 88.3896 56.4769 88.8379 56.7628C90.8123 58.0219 96.4522 61.9068 97.9272 66.0643C99.3135 69.9717 101.278 74.214 97.9272 76.6747C95.9525 78.1247 93.9874 78.4583 91.7056 77.5589C90.1064 76.9285 87.5008 77.3225 86.9941 78.9651C85.8469 82.6837 83.7312 87.285 80.1513 88.1693C75.0203 89.4368 72.9694 82.3469 67.7082 82.8641C61.1091 83.5129 61.8891 94.0503 55.2651 94.3587C48.8158 94.659 48.2542 85.9404 41.9331 84.6325C35.6671 83.3361 31.3542 91.5565 25.9348 88.1693C21.7268 85.5392 24.9323 79.1008 20.6021 76.6747C18.626 75.5676 15.6397 75.6661 13.3292 75.9856C11.5184 76.236 9.71903 75.0486 9.65391 73.2217C9.60107 71.7394 9.63789 70.0464 9.93654 68.7169Z" fill="#165370"/>
</g>
<g filter="url(#filter3_d_2_700)">
<path d="M18.7886 52.8168C19.6301 49.0517 23.9545 45.0992 25.7511 43.5919C26.2537 43.1702 26.8904 42.9576 27.5465 42.9576H79.9449C80.4789 42.9576 81.0008 43.0975 81.4486 43.3884C83.1262 44.4785 87.3722 47.489 88.507 50.7041C89.6053 53.8162 91.1622 57.195 88.507 59.1548C86.9423 60.3097 85.3853 60.5754 83.5774 59.859C82.3118 59.3576 80.2459 59.6686 79.847 60.9701C78.9387 63.9333 77.2617 67.6047 74.4224 68.3098C70.357 69.3193 68.7319 63.6724 64.5633 64.0844C59.3346 64.6011 59.9526 72.9937 54.7041 73.2393C49.5941 73.4785 49.1492 66.5345 44.1408 65.4929C39.1759 64.4603 35.7586 71.0075 31.4647 68.3098C28.1305 66.215 30.6703 61.0871 27.2393 59.1548C25.8728 58.3852 23.8965 58.3471 22.1986 58.519C20.3774 58.7035 18.5622 57.5226 18.5493 55.6921C18.5423 54.7049 18.5985 53.6674 18.7886 52.8168Z" fill="#017197"/>
</g>
<g filter="url(#filter4_d_2_700)">
<path d="M23.0137 43.662C23.014 41.6421 42.9687 8.7247 53.9532 0.912565C54.8279 0.290538 55.9664 0.332954 56.8188 0.98508C68.4111 9.85356 88.6097 42.7439 85.5789 45.7747C82.4211 48.9325 77.6842 45.122 76.5348 45.7747C72.1251 48.2787 73.147 55.9207 68.0841 55.6338C64.7325 55.4439 64.3847 51.0124 61.0418 50.7042C56.7118 50.3051 56.2322 57.2073 51.8869 57.0423C47.7646 56.8857 47.5165 51.3118 43.4362 50.7042C39.3924 50.102 37.2976 55.9202 33.5771 54.2254C30.2193 52.6958 32.3035 47.9885 29.3517 45.7747C27.2645 44.2092 23.0133 45.7746 23.0137 43.662Z" fill="#15779E"/>
</g>
<g filter="url(#filter5_i_2_700)">
<path d="M56.923 143.098C54.4976 144.744 49.6753 145.049 49.6753 145.049C49.6753 145.049 49.6475 139.063 51.9054 136.408C54.5815 133.261 61.9407 133.062 61.9407 133.062C61.9407 133.062 60.5486 140.637 56.923 143.098Z" fill="#1F8285"/>
</g>
<g filter="url(#filter6_i_2_700)">
<path d="M33.2283 143.098C35.6538 144.744 40.4761 145.049 40.4761 145.049C40.4761 145.049 40.5038 139.063 38.246 136.408C35.5699 133.261 28.2106 133.062 28.2106 133.062C28.2106 133.062 29.6027 140.637 33.2283 143.098Z" fill="#207F83"/>
</g>
<g filter="url(#filter7_i_2_700)">
<path d="M38.2729 140.304C40.6342 143.486 46.6527 146.027 46.6527 146.027C46.6527 146.027 49.3587 138.399 47.6615 134.003C45.6499 128.793 36.3457 125.257 36.3457 125.257C36.3457 125.257 34.7432 135.546 38.2729 140.304Z" fill="#288A8D"/>
</g>
<g filter="url(#filter8_i_2_700)">
<path d="M44.4052 130.424C46.7665 127.241 52.785 124.7 52.785 124.7C52.785 124.7 55.491 132.328 53.7938 136.724C51.7822 141.934 42.478 145.47 42.478 145.47C42.478 145.47 40.8755 135.181 44.4052 130.424Z" fill="#2A898F"/>
</g>
<g filter="url(#filter9_i_2_700)">
<path d="M50.516 146.231C47.5925 146.444 43.2636 146.231 43.2636 146.231C43.2636 146.231 46.2328 141.033 49.5156 139.862C53.4068 138.475 59.8791 141.983 59.8791 141.983C59.8791 141.983 54.886 145.913 50.516 146.231Z" fill="#1E8284"/>
</g>
<g filter="url(#filter10_i_2_700)">
<path d="M37.5733 146.231C40.4968 146.444 44.8257 146.231 44.8257 146.231C44.8257 146.231 41.8565 141.033 38.5736 139.862C34.6825 138.475 28.2102 141.983 28.2102 141.983C28.2102 141.983 33.2032 145.913 37.5733 146.231Z" fill="#1F8184"/>
</g>
<g filter="url(#filter11_i_2_700)">
<path d="M73.3386 143.959C71.216 145.4 66.9956 145.667 66.9956 145.667C66.9956 145.667 66.9713 140.428 68.9473 138.104C71.2894 135.35 77.7299 135.177 77.7299 135.177C77.7299 135.177 76.5116 141.806 73.3386 143.959Z" fill="#B49E75"/>
</g>
<g filter="url(#filter12_i_2_700)">
<path d="M52.6021 143.959C54.7248 145.4 58.9451 145.667 58.9451 145.667C58.9451 145.667 58.9694 140.428 56.9935 138.104C54.6514 135.35 48.2108 135.177 48.2108 135.177C48.2108 135.177 49.4291 141.806 52.6021 143.959Z" fill="#B69F76"/>
</g>
<g filter="url(#filter13_i_2_700)">
<path d="M57.0169 141.514C59.0835 144.299 64.3506 146.523 64.3506 146.523C64.3506 146.523 66.7189 139.847 65.2335 136C63.473 131.44 55.3303 128.345 55.3303 128.345C55.3303 128.345 53.9278 137.35 57.0169 141.514Z" fill="#D0B686"/>
</g>
<g filter="url(#filter14_i_2_700)">
<path d="M62.3839 132.867C64.4504 130.082 69.7176 127.858 69.7176 127.858C69.7176 127.858 72.0858 134.534 70.6005 138.381C68.84 142.941 60.6973 146.035 60.6973 146.035C60.6973 146.035 59.2948 137.031 62.3839 132.867Z" fill="#B49E77"/>
</g>
<g filter="url(#filter15_i_2_700)">
<path d="M67.7316 146.701C65.173 146.887 61.3845 146.701 61.3845 146.701C61.3845 146.701 63.983 142.152 66.8561 141.127C70.2615 139.913 75.9259 142.983 75.9259 142.983C75.9259 142.983 71.5561 146.423 67.7316 146.701Z" fill="#D6BA8E"/>
</g>
<g filter="url(#filter16_i_2_700)">
<path d="M56.4051 146.701C58.9637 146.887 62.7522 146.701 62.7522 146.701C62.7522 146.701 60.1537 142.152 57.2806 141.127C53.8752 139.913 48.2108 142.983 48.2108 142.983C48.2108 142.983 52.5806 146.423 56.4051 146.701Z" fill="#DABE8E"/>
</g>
<defs>
<filter id="filter0_i_2_700" x="45.0526" y="93.1208" width="20.8947" height="51.579" filterUnits="userSpaceOnUse" color-interpolation-filters="sRGB">
<feFlood flood-opacity="0" result="BackgroundImageFix"/>
<feBlend mode="normal" in="SourceGraphic" in2="BackgroundImageFix" result="shape"/>
<feColorMatrix in="SourceAlpha" type="matrix" values="0 0 0 0 0 0 0 0 0 0 0 0 0 0 0 0 0 0 127 0" result="hardAlpha"/>
<feOffset dx="9"/>
<feGaussianBlur stdDeviation="1.5"/>
<feComposite in2="hardAlpha" operator="arithmetic" k2="-1" k3="1"/>
<feColorMatrix type="matrix" values="0 0 0 0 0 0 0 0 0 0 0 0 0 0 0 0 0 0 0.12 0"/>
<feBlend mode="normal" in2="shape" result="effect1_innerShadow_2_700"/>
</filter>
<filter id="filter1_d_2_700" x="0" y="69.0142" width="108" height="50.2535" filterUnits="userSpaceOnUse" color-interpolation-filters="sRGB">
<feFlood flood-opacity="0" result="BackgroundImageFix"/>
<feColorMatrix in="SourceAlpha" type="matrix" values="0 0 0 0 0 0 0 0 0 0 0 0 0 0 0 0 0 0 127 0" result="hardAlpha"/>
<feOffset dy="4"/>
<feGaussianBlur stdDeviation="2"/>
<feComposite in2="hardAlpha" operator="out"/>
<feColorMatrix type="matrix" values="0 0 0 0 0 0 0 0 0 0 0 0 0 0 0 0 0 0 0.12 0"/>
<feBlend mode="normal" in2="BackgroundImageFix" result="effect1_dropShadow_2_700"/>
<feBlend mode="normal" in="SourceGraphic" in2="effect1_dropShadow_2_700" result="shape"/>
</filter>
<filter id="filter2_d_2_700" x="5.63374" y="56.3381" width="98.1409" height="46.0282" filterUnits="userSpaceOnUse" color-interpolation-filters="sRGB">
<feFlood flood-opacity="0" result="BackgroundImageFix"/>
<feColorMatrix in="SourceAlpha" type="matrix" values="0 0 0 0 0 0 0 0 0 0 0 0 0 0 0 0 0 0 127 0" result="hardAlpha"/>
<feOffset dy="4"/>
<feGaussianBlur stdDeviation="2"/>
<feComposite in2="hardAlpha" operator="out"/>
<feColorMatrix type="matrix" values="0 0 0 0 0 0 0 0 0 0 0 0 0 0 0 0 0 0 0.12 0"/>
<feBlend mode="normal" in2="BackgroundImageFix" result="effect1_dropShadow_2_700"/>
<feBlend mode="normal" in="SourceGraphic" in2="effect1_dropShadow_2_700" result="shape"/>
</filter>
<filter id="filter3_d_2_700" x="14.5487" y="42.9576" width="79.422" height="38.2877" filterUnits="userSpaceOnUse" color-interpolation-filters="sRGB">
<feFlood flood-opacity="0" result="BackgroundImageFix"/>
<feColorMatrix in="SourceAlpha" type="matrix" values="0 0 0 0 0 0 0 0 0 0 0 0 0 0 0 0 0 0 127 0" result="hardAlpha"/>
<feOffset dy="4"/>
<feGaussianBlur stdDeviation="2"/>
<feComposite in2="hardAlpha" operator="out"/>
<feColorMatrix type="matrix" values="0 0 0 0 0 0 0 0 0 0 0 0 0 0 0 0 0 0 0.12 0"/>
<feBlend mode="normal" in2="BackgroundImageFix" result="effect1_dropShadow_2_700"/>
<feBlend mode="normal" in="SourceGraphic" in2="effect1_dropShadow_2_700" result="shape"/>
</filter>
<filter id="filter4_d_2_700" x="19.0137" y="0.470093" width="70.8713" height="64.5751" filterUnits="userSpaceOnUse" color-interpolation-filters="sRGB">
<feFlood flood-opacity="0" result="BackgroundImageFix"/>
<feColorMatrix in="SourceAlpha" type="matrix" values="0 0 0 0 0 0 0 0 0 0 0 0 0 0 0 0 0 0 127 0" result="hardAlpha"/>
<feOffset dy="4"/>
<feGaussianBlur stdDeviation="2"/>
<feComposite in2="hardAlpha" operator="out"/>
<feColorMatrix type="matrix" values="0 0 0 0 0 0 0 0 0 0 0 0 0 0 0 0 0 0 0.12 0"/>
<feBlend mode="normal" in2="BackgroundImageFix" result="effect1_dropShadow_2_700"/>
<feBlend mode="normal" in="SourceGraphic" in2="effect1_dropShadow_2_700" result="shape"/>
</filter>
<filter id="filter5_i_2_700" x="49.6753" y="133.062" width="12.2654" height="15.9867" filterUnits="userSpaceOnUse" color-interpolation-filters="sRGB">
<feFlood flood-opacity="0" result="BackgroundImageFix"/>
<feBlend mode="normal" in="SourceGraphic" in2="BackgroundImageFix" result="shape"/>
<feColorMatrix in="SourceAlpha" type="matrix" values="0 0 0 0 0 0 0 0 0 0 0 0 0 0 0 0 0 0 127 0" result="hardAlpha"/>
<feOffset dy="7"/>
<feGaussianBlur stdDeviation="2"/>
<feComposite in2="hardAlpha" operator="arithmetic" k2="-1" k3="1"/>
<feColorMatrix type="matrix" values="0 0 0 0 0 0 0 0 0 0 0 0 0 0 0 0 0 0 0.1 0"/>
<feBlend mode="normal" in2="shape" result="effect1_innerShadow_2_700"/>
</filter>
<filter id="filter6_i_2_700" x="28.2106" y="133.062" width="12.2654" height="15.9867" filterUnits="userSpaceOnUse" color-interpolation-filters="sRGB">
<feFlood flood-opacity="0" result="BackgroundImageFix"/>
<feBlend mode="normal" in="SourceGraphic" in2="BackgroundImageFix" result="shape"/>
<feColorMatrix in="SourceAlpha" type="matrix" values="0 0 0 0 0 0 0 0 0 0 0 0 0 0 0 0 0 0 127 0" result="hardAlpha"/>
<feOffset dy="7"/>
<feGaussianBlur stdDeviation="2"/>
<feComposite in2="hardAlpha" operator="arithmetic" k2="-1" k3="1"/>
<feColorMatrix type="matrix" values="0 0 0 0 0 0 0 0 0 0 0 0 0 0 0 0 0 0 0.1 0"/>
<feBlend mode="normal" in2="shape" result="effect1_innerShadow_2_700"/>
</filter>
<filter id="filter7_i_2_700" x="35.9828" y="125.257" width="12.2381" height="24.7703" filterUnits="userSpaceOnUse" color-interpolation-filters="sRGB">
<feFlood flood-opacity="0" result="BackgroundImageFix"/>
<feBlend mode="normal" in="SourceGraphic" in2="BackgroundImageFix" result="shape"/>
<feColorMatrix in="SourceAlpha" type="matrix" values="0 0 0 0 0 0 0 0 0 0 0 0 0 0 0 0 0 0 127 0" result="hardAlpha"/>
<feOffset dy="7"/>
<feGaussianBlur stdDeviation="2"/>
<feComposite in2="hardAlpha" operator="arithmetic" k2="-1" k3="1"/>
<feColorMatrix type="matrix" values="0 0 0 0 0 0 0 0 0 0 0 0 0 0 0 0 0 0 0.1 0"/>
<feBlend mode="normal" in2="shape" result="effect1_innerShadow_2_700"/>
</filter>
<filter id="filter8_i_2_700" x="42.1151" y="124.7" width="12.2381" height="24.7703" filterUnits="userSpaceOnUse" color-interpolation-filters="sRGB">
<feFlood flood-opacity="0" result="BackgroundImageFix"/>
<feBlend mode="normal" in="SourceGraphic" in2="BackgroundImageFix" result="shape"/>
<feColorMatrix in="SourceAlpha" type="matrix" values="0 0 0 0 0 0 0 0 0 0 0 0 0 0 0 0 0 0 127 0" result="hardAlpha"/>
<feOffset dy="7"/>
<feGaussianBlur stdDeviation="2"/>
<feComposite in2="hardAlpha" operator="arithmetic" k2="-1" k3="1"/>
<feColorMatrix type="matrix" values="0 0 0 0 0 0 0 0 0 0 0 0 0 0 0 0 0 0 0.1 0"/>
<feBlend mode="normal" in2="shape" result="effect1_innerShadow_2_700"/>
</filter>
<filter id="filter9_i_2_700" x="43.2636" y="139.537" width="16.6155" height="10.788" filterUnits="userSpaceOnUse" color-interpolation-filters="sRGB">
<feFlood flood-opacity="0" result="BackgroundImageFix"/>
<feBlend mode="normal" in="SourceGraphic" in2="BackgroundImageFix" result="shape"/>
<feColorMatrix in="SourceAlpha" type="matrix" values="0 0 0 0 0 0 0 0 0 0 0 0 0 0 0 0 0 0 127 0" result="hardAlpha"/>
<feOffset dy="7"/>
<feGaussianBlur stdDeviation="2"/>
<feComposite in2="hardAlpha" operator="arithmetic" k2="-1" k3="1"/>
<feColorMatrix type="matrix" values="0 0 0 0 0 0 0 0 0 0 0 0 0 0 0 0 0 0 0.1 0"/>
<feBlend mode="normal" in2="shape" result="effect1_innerShadow_2_700"/>
</filter>
<filter id="filter10_i_2_700" x="28.2102" y="139.537" width="16.6155" height="10.788" filterUnits="userSpaceOnUse" color-interpolation-filters="sRGB">
<feFlood flood-opacity="0" result="BackgroundImageFix"/>
<feBlend mode="normal" in="SourceGraphic" in2="BackgroundImageFix" result="shape"/>
<feColorMatrix in="SourceAlpha" type="matrix" values="0 0 0 0 0 0 0 0 0 0 0 0 0 0 0 0 0 0 127 0" result="hardAlpha"/>
<feOffset dy="7"/>
<feGaussianBlur stdDeviation="2"/>
<feComposite in2="hardAlpha" operator="arithmetic" k2="-1" k3="1"/>
<feColorMatrix type="matrix" values="0 0 0 0 0 0 0 0 0 0 0 0 0 0 0 0 0 0 0.1 0"/>
<feBlend mode="normal" in2="shape" result="effect1_innerShadow_2_700"/>
</filter>
<filter id="filter11_i_2_700" x="66.9956" y="135.177" width="10.7343" height="14.4904" filterUnits="userSpaceOnUse" color-interpolation-filters="sRGB">
<feFlood flood-opacity="0" result="BackgroundImageFix"/>
<feBlend mode="normal" in="SourceGraphic" in2="BackgroundImageFix" result="shape"/>
<feColorMatrix in="SourceAlpha" type="matrix" values="0 0 0 0 0 0 0 0 0 0 0 0 0 0 0 0 0 0 127 0" result="hardAlpha"/>
<feOffset dy="7"/>
<feGaussianBlur stdDeviation="2"/>
<feComposite in2="hardAlpha" operator="arithmetic" k2="-1" k3="1"/>
<feColorMatrix type="matrix" values="0 0 0 0 0 0 0 0 0 0 0 0 0 0 0 0 0 0 0.1 0"/>
<feBlend mode="normal" in2="shape" result="effect1_innerShadow_2_700"/>
</filter>
<filter id="filter12_i_2_700" x="48.2108" y="135.177" width="10.7343" height="14.4904" filterUnits="userSpaceOnUse" color-interpolation-filters="sRGB">
<feFlood flood-opacity="0" result="BackgroundImageFix"/>
<feBlend mode="normal" in="SourceGraphic" in2="BackgroundImageFix" result="shape"/>
<feColorMatrix in="SourceAlpha" type="matrix" values="0 0 0 0 0 0 0 0 0 0 0 0 0 0 0 0 0 0 127 0" result="hardAlpha"/>
<feOffset dy="7"/>
<feGaussianBlur stdDeviation="2"/>
<feComposite in2="hardAlpha" operator="arithmetic" k2="-1" k3="1"/>
<feColorMatrix type="matrix" values="0 0 0 0 0 0 0 0 0 0 0 0 0 0 0 0 0 0 0.1 0"/>
<feBlend mode="normal" in2="shape" result="effect1_innerShadow_2_700"/>
</filter>
<filter id="filter13_i_2_700" x="55.0127" y="128.345" width="10.7104" height="22.1775" filterUnits="userSpaceOnUse" color-interpolation-filters="sRGB">
<feFlood flood-opacity="0" result="BackgroundImageFix"/>
<feBlend mode="normal" in="SourceGraphic" in2="BackgroundImageFix" result="shape"/>
<feColorMatrix in="SourceAlpha" type="matrix" values="0 0 0 0 0 0 0 0 0 0 0 0 0 0 0 0 0 0 127 0" result="hardAlpha"/>
<feOffset dy="7"/>
<feGaussianBlur stdDeviation="2"/>
<feComposite in2="hardAlpha" operator="arithmetic" k2="-1" k3="1"/>
<feColorMatrix type="matrix" values="0 0 0 0 0 0 0 0 0 0 0 0 0 0 0 0 0 0 0.1 0"/>
<feBlend mode="normal" in2="shape" result="effect1_innerShadow_2_700"/>
</filter>
<filter id="filter14_i_2_700" x="60.3796" y="127.858" width="10.7104" height="22.1775" filterUnits="userSpaceOnUse" color-interpolation-filters="sRGB">
<feFlood flood-opacity="0" result="BackgroundImageFix"/>
<feBlend mode="normal" in="SourceGraphic" in2="BackgroundImageFix" result="shape"/>
<feColorMatrix in="SourceAlpha" type="matrix" values="0 0 0 0 0 0 0 0 0 0 0 0 0 0 0 0 0 0 127 0" result="hardAlpha"/>
<feOffset dy="7"/>
<feGaussianBlur stdDeviation="2"/>
<feComposite in2="hardAlpha" operator="arithmetic" k2="-1" k3="1"/>
<feColorMatrix type="matrix" values="0 0 0 0 0 0 0 0 0 0 0 0 0 0 0 0 0 0 0.1 0"/>
<feBlend mode="normal" in2="shape" result="effect1_innerShadow_2_700"/>
</filter>
<filter id="filter15_i_2_700" x="61.3845" y="140.843" width="14.5414" height="9.94055" filterUnits="userSpaceOnUse" color-interpolation-filters="sRGB">
<feFlood flood-opacity="0" result="BackgroundImageFix"/>
<feBlend mode="normal" in="SourceGraphic" in2="BackgroundImageFix" result="shape"/>
<feColorMatrix in="SourceAlpha" type="matrix" values="0 0 0 0 0 0 0 0 0 0 0 0 0 0 0 0 0 0 127 0" result="hardAlpha"/>
<feOffset dy="7"/>
<feGaussianBlur stdDeviation="2"/>
<feComposite in2="hardAlpha" operator="arithmetic" k2="-1" k3="1"/>
<feColorMatrix type="matrix" values="0 0 0 0 0 0 0 0 0 0 0 0 0 0 0 0 0 0 0.1 0"/>
<feBlend mode="normal" in2="shape" result="effect1_innerShadow_2_700"/>
</filter>
<filter id="filter16_i_2_700" x="48.2108" y="140.843" width="14.5414" height="9.94055" filterUnits="userSpaceOnUse" color-interpolation-filters="sRGB">
<feFlood flood-opacity="0" result="BackgroundImageFix"/>
<feBlend mode="normal" in="SourceGraphic" in2="BackgroundImageFix" result="shape"/>
<feColorMatrix in="SourceAlpha" type="matrix" values="0 0 0 0 0 0 0 0 0 0 0 0 0 0 0 0 0 0 127 0" result="hardAlpha"/>
<feOffset dy="7"/>
<feGaussianBlur stdDeviation="2"/>
<feComposite in2="hardAlpha" operator="arithmetic" k2="-1" k3="1"/>
<feColorMatrix type="matrix" values="0 0 0 0 0 0 0 0 0 0 0 0 0 0 0 0 0 0 0.1 0"/>
<feBlend mode="normal" in2="shape" result="effect1_innerShadow_2_700"/>
</filter>
<linearGradient id="paint0_linear_2_700" x1="62.5417" y1="125.452" x2="45.2152" y2="127.13" gradientUnits="userSpaceOnUse">
<stop stop-color="#38312B"/>
<stop offset="1" stop-color="#7E6851"/>
</linearGradient>
</defs>
</svg>
