<?xml version="1.0" standalone="no"?>
<!DOCTYPE svg PUBLIC "-//W3C//DTD SVG 20010904//EN"
 "http://www.w3.org/TR/2001/REC-SVG-20010904/DTD/svg10.dtd">
<svg version="1.0" xmlns="http://www.w3.org/2000/svg"
 width="1920.000000pt" height="1920.000000pt" viewBox="0 0 1920.000000 1920.000000"
 preserveAspectRatio="xMidYMid meet">

<g transform="translate(0.000000,1920.000000) scale(0.100000,-0.100000)"
fill="#ffff" stroke="none">
<path d="M9405 17894 c-210 -32 -409 -131 -558 -280 -67 -65 -166 -203 -199
-274 -9 -19 -58 -120 -108 -225 -51 -104 -119 -246 -152 -315 -33 -69 -96
-199 -140 -290 -79 -162 -137 -283 -276 -570 -38 -80 -106 -219 -150 -310 -44
-91 -107 -221 -140 -290 -33 -69 -103 -214 -156 -323 -53 -109 -96 -200 -96
-202 0 -1 -50 -106 -111 -231 -61 -126 -137 -283 -169 -349 -32 -66 -90 -187
-130 -270 -40 -82 -97 -202 -127 -265 -31 -63 -100 -206 -154 -318 -55 -112
-99 -206 -99 -208 0 -10 -64 -99 -84 -117 -30 -27 -95 -63 -136 -76 -19 -6
-96 -20 -170 -31 -227 -34 -273 -41 -335 -51 -33 -6 -87 -14 -120 -19 -33 -4
-91 -13 -130 -19 -38 -6 -128 -20 -200 -31 -162 -24 -310 -47 -395 -61 -36 -5
-92 -14 -125 -19 -33 -5 -87 -13 -120 -19 -33 -5 -91 -14 -130 -20 -474 -72
-510 -78 -600 -92 -33 -6 -88 -14 -122 -19 -35 -6 -91 -14 -125 -20 -35 -5
-92 -14 -128 -19 -36 -5 -141 -21 -235 -36 -242 -38 -282 -44 -355 -55 -36 -5
-94 -14 -130 -20 -75 -12 -155 -25 -255 -40 -73 -10 -118 -17 -295 -45 -176
-28 -222 -35 -290 -45 -36 -5 -94 -14 -130 -20 -36 -6 -92 -15 -125 -20 -33
-5 -87 -13 -120 -18 -96 -15 -260 -73 -345 -123 -63 -36 -174 -125 -226 -182
-49 -53 -164 -216 -164 -232 0 -3 -8 -24 -19 -48 -70 -159 -101 -349 -82 -500
38 -285 132 -462 367 -686 55 -52 146 -140 204 -195 58 -55 155 -147 215 -205
61 -58 163 -157 228 -218 64 -62 168 -161 230 -220 62 -60 218 -209 347 -333
129 -123 284 -272 344 -330 60 -58 124 -118 141 -135 53 -50 233 -222 360
-344 66 -63 165 -158 220 -210 55 -53 159 -152 230 -220 72 -69 177 -170 235
-225 490 -467 575 -552 598 -599 43 -89 51 -147 33 -244 -5 -26 -14 -82 -21
-123 -6 -41 -15 -97 -20 -125 -5 -27 -14 -81 -20 -120 -7 -38 -16 -95 -21
-125 -5 -30 -20 -127 -34 -215 -14 -88 -30 -185 -35 -215 -5 -30 -14 -86 -20
-125 -27 -165 -41 -252 -60 -362 -9 -54 -48 -298 -71 -443 -5 -36 -14 -91 -19
-122 -6 -32 -14 -85 -20 -118 -5 -33 -14 -86 -20 -118 -13 -73 -61 -375 -111
-692 -5 -36 -14 -84 -19 -108 -6 -23 -10 -53 -10 -67 0 -14 -4 -44 -10 -67 -5
-24 -14 -72 -19 -108 -26 -164 -62 -390 -71 -440 -5 -30 -14 -86 -20 -125 -6
-38 -15 -92 -20 -120 -5 -27 -14 -81 -20 -120 -6 -38 -15 -95 -20 -125 -57
-329 -63 -379 -64 -530 0 -137 3 -166 27 -252 57 -209 186 -407 342 -523 22
-17 45 -35 51 -41 12 -10 210 -110 249 -125 23 -8 88 -24 163 -39 29 -5 102
-10 162 -10 190 0 320 37 540 152 63 33 120 64 125 68 6 4 60 33 120 65 61 32
157 83 215 113 58 30 110 58 115 62 6 4 51 29 100 55 50 26 117 62 150 80 33
18 96 52 140 75 44 24 85 46 90 50 6 4 73 40 150 80 77 40 160 84 185 98 25
14 72 39 105 57 33 18 85 46 115 62 30 17 100 54 155 83 55 29 135 73 179 97
43 23 80 43 82 43 1 0 29 15 61 34 32 18 112 61 178 96 66 34 125 66 130 70 6
4 69 38 140 75 72 37 135 71 140 75 6 4 68 37 139 74 71 38 139 74 150 81 12
7 59 33 106 57 141 75 243 129 285 153 22 13 81 44 130 70 50 26 128 68 175
93 434 234 418 227 521 227 l87 0 214 -108 c117 -59 281 -143 363 -185 283
-147 550 -285 805 -414 140 -72 323 -165 405 -208 293 -151 559 -289 950 -490
99 -51 230 -119 290 -150 61 -32 227 -117 370 -190 539 -275 711 -363 750
-384 122 -67 303 -121 447 -133 79 -7 221 10 328 38 328 88 601 361 689 689
36 137 46 247 32 357 -12 94 -48 316 -71 433 -6 30 -15 78 -20 105 -5 28 -14
77 -20 110 -27 140 -44 236 -75 415 -14 80 -29 169 -35 198 -12 64 -28 150
-40 217 -9 53 -25 139 -41 220 -5 28 -20 115 -34 195 -26 151 -41 233 -55 310
-9 46 -23 120 -39 213 -6 28 -14 77 -20 107 -6 30 -22 123 -36 205 -15 83 -31
173 -36 200 -11 59 -25 135 -38 208 -12 67 -28 149 -40 212 -6 28 -22 120 -36
205 -14 85 -30 178 -36 205 -11 55 -24 128 -38 208 -16 85 -31 169 -41 217 -5
25 -21 115 -35 200 -14 85 -31 175 -38 200 -6 25 -11 86 -11 135 0 146 -2 143
417 558 2255 2235 3034 3014 3080 3080 82 115 123 205 163 357 13 48 17 105
17 220 0 136 -3 167 -26 253 -77 283 -274 525 -527 645 -127 60 -204 79 -445
112 -44 6 -109 15 -145 20 -36 5 -96 14 -135 19 -102 14 -513 70 -820 111 -44
6 -110 15 -147 20 -38 6 -98 14 -135 20 -38 5 -104 14 -148 20 -104 13 -430
57 -522 70 -40 5 -107 15 -148 20 -168 22 -233 31 -285 40 -30 5 -93 14 -140
20 -47 6 -186 24 -310 41 -215 29 -299 40 -455 59 -38 5 -99 13 -135 19 -93
14 -195 28 -360 50 -201 27 -373 51 -450 62 -36 5 -87 12 -115 15 -99 13 -185
66 -238 147 -19 29 -186 354 -372 722 -186 369 -438 868 -560 1110 -122 242
-381 755 -575 1140 -718 1424 -670 1336 -794 1460 -78 77 -101 97 -162 136
-87 57 -184 99 -309 135 -50 14 -320 27 -380 18z m288 -702 c42 -21 79 -48
100 -75 19 -23 177 -325 352 -672 175 -346 415 -823 535 -1060 120 -236 365
-722 545 -1080 569 -1129 737 -1459 768 -1505 136 -202 349 -354 583 -414 54
-14 152 -29 359 -56 44 -6 107 -15 140 -20 64 -10 109 -16 220 -30 60 -8 610
-83 805 -110 192 -26 228 -31 443 -60 39 -5 189 -25 332 -45 143 -20 294 -40
335 -46 41 -5 104 -14 140 -19 36 -5 99 -13 140 -19 335 -45 852 -117 1025
-141 116 -16 246 -34 290 -40 603 -80 595 -78 681 -167 57 -61 85 -133 85
-228 1 -140 90 -42 -1335 -1458 -705 -699 -1465 -1453 -1689 -1677 -225 -223
-431 -434 -458 -470 -48 -64 -123 -200 -146 -270 -39 -114 -53 -198 -53 -333
0 -76 4 -157 9 -180 5 -23 15 -71 21 -107 6 -36 15 -85 20 -110 5 -25 18 -97
30 -160 67 -378 91 -510 100 -555 5 -27 12 -66 15 -85 6 -33 12 -68 34 -192 6
-29 24 -129 40 -223 17 -93 35 -195 41 -225 14 -76 48 -264 60 -330 6 -30 26
-143 45 -250 19 -107 40 -222 46 -255 6 -33 14 -80 19 -105 5 -25 13 -72 19
-105 6 -33 17 -94 25 -135 8 -41 24 -131 36 -200 11 -69 24 -145 30 -170 5
-25 18 -97 29 -160 12 -63 25 -137 30 -165 22 -120 33 -181 66 -365 19 -107
39 -217 44 -245 5 -27 14 -77 20 -110 6 -33 20 -107 32 -165 46 -237 35 -329
-52 -424 -58 -64 -115 -94 -199 -106 -106 -15 -127 -7 -515 195 -141 74 -365
189 -670 345 -357 183 -601 308 -740 380 -71 37 -220 114 -330 170 -110 56
-258 133 -330 170 -170 88 -425 219 -710 365 -126 65 -297 152 -380 195 -82
43 -235 121 -340 175 -104 54 -222 115 -261 135 -93 49 -212 94 -304 115 -89
20 -286 23 -375 6 -136 -27 -293 -93 -480 -201 -16 -9 -70 -39 -120 -65 -93
-49 -126 -67 -330 -177 -66 -36 -160 -87 -210 -113 -49 -26 -112 -60 -140 -75
-27 -15 -86 -47 -130 -70 -44 -24 -107 -57 -140 -75 -33 -18 -89 -48 -125 -67
-89 -48 -435 -234 -600 -323 -74 -40 -171 -92 -215 -115 -44 -23 -102 -55
-130 -70 -27 -15 -90 -49 -140 -75 -49 -26 -144 -77 -210 -113 -66 -35 -154
-83 -195 -105 -41 -22 -93 -50 -115 -62 -22 -12 -80 -43 -130 -70 -49 -26
-118 -63 -152 -81 -35 -19 -93 -50 -130 -70 -38 -20 -95 -51 -128 -69 -33 -18
-100 -54 -150 -80 -49 -26 -112 -60 -140 -75 -339 -186 -337 -185 -440 -184
-77 0 -97 4 -140 26 -95 50 -162 142 -178 244 -7 44 2 127 41 364 35 209 69
422 108 660 24 151 49 302 54 335 6 33 17 103 25 155 23 152 74 470 85 530 5
30 21 125 35 210 13 85 38 241 55 345 17 105 44 273 60 375 17 102 34 208 39
235 6 28 15 82 20 120 17 108 100 623 111 685 9 51 66 403 91 565 6 39 15 92
20 118 5 26 9 95 9 152 0 254 -99 500 -276 687 -58 61 -269 265 -644 623 -58
55 -164 156 -235 225 -72 68 -177 169 -235 225 -58 55 -166 158 -240 229 -244
234 -363 348 -480 460 -63 60 -167 160 -230 221 -63 60 -218 209 -345 330
-1078 1029 -1014 966 -1045 1030 -21 42 -25 65 -25 140 0 105 23 163 90 230
65 65 112 81 337 116 112 17 259 39 328 50 69 11 152 24 185 29 33 5 101 15
150 24 50 8 196 31 325 51 129 19 263 40 297 45 35 6 91 14 125 20 35 5 119
18 188 29 69 11 231 36 360 56 129 19 263 40 298 45 34 6 91 15 127 20 74 11
148 23 285 44 52 9 156 25 230 36 74 11 163 25 198 30 34 6 91 15 127 20 36 6
94 15 130 20 95 15 178 28 285 45 52 8 201 31 330 51 129 19 260 39 290 44 30
5 75 11 100 15 168 25 291 63 400 123 191 105 339 266 445 487 81 169 186 387
265 550 45 94 111 229 145 300 35 72 97 202 140 290 43 88 103 214 135 280 32
66 95 197 140 290 45 94 108 224 140 290 32 66 95 197 140 290 45 94 108 224
140 290 64 133 158 328 275 570 42 88 101 210 130 270 29 61 87 182 130 270
43 88 112 233 155 322 80 166 132 238 194 270 102 54 207 55 309 5z"/>
</g>
</svg>
