<svg width="268" height="446" viewBox="0 0 268 446" fill="none" xmlns="http://www.w3.org/2000/svg">
<path d="M105.856 12.8875H148.742L154.103 0L111.217 3.22188L105.856 12.8875Z" fill="#4B433E"/>
<path d="M105.856 12.8875L127.299 367.294L180.907 360.85L164.825 267.416L148.742 12.8875H105.856Z" fill="#61574D"/>
<path d="M164.825 267.416L180.907 360.85L170.186 264.194L154.103 0L148.742 12.8875L164.825 267.416Z" fill="#4B433E"/>
<g filter="url(#filter0_i_2_703)">
<path d="M224.528 393.277C210.428 402.642 182.393 404.38 182.393 404.38C182.393 404.38 182.232 370.316 195.358 355.208C210.915 337.301 253.699 336.174 253.699 336.174C253.699 336.174 245.606 379.276 224.528 393.277Z" fill="#1F8285"/>
</g>
<g filter="url(#filter1_i_2_703)">
<path d="M86.7792 393.277C100.88 402.642 128.914 404.38 128.914 404.38C128.914 404.38 129.076 370.316 115.95 355.208C100.392 337.301 57.6088 336.174 57.6088 336.174C57.6088 336.174 65.7017 379.276 86.7792 393.277Z" fill="#207F83"/>
</g>
<g filter="url(#filter2_i_2_703)">
<path d="M116.106 377.378C129.833 395.488 164.822 409.947 164.822 409.947C164.822 409.947 180.553 366.541 170.687 341.528C158.992 311.88 104.902 291.76 104.902 291.76C104.902 291.76 95.5856 350.306 116.106 377.378Z" fill="#288A8D"/>
</g>
<g filter="url(#filter3_i_2_703)">
<path d="M151.759 321.157C165.486 303.047 200.475 288.588 200.475 288.588C200.475 288.588 216.206 331.993 206.34 357.007C194.645 386.655 140.555 406.774 140.555 406.774C140.555 406.774 131.238 348.229 151.759 321.157Z" fill="#2A898F"/>
</g>
<g filter="url(#filter4_i_2_703)">
<path d="M187.282 411.104C170.286 412.315 145.12 411.104 145.12 411.104C145.12 411.104 162.382 381.525 181.467 374.865C204.088 366.971 241.715 386.932 241.715 386.932C241.715 386.932 212.688 409.295 187.282 411.104Z" fill="#1E8284"/>
</g>
<g filter="url(#filter5_i_2_703)">
<path d="M112.042 411.104C129.038 412.315 154.204 411.104 154.204 411.104C154.204 411.104 136.942 381.525 117.857 374.865C95.2361 366.971 57.609 386.932 57.609 386.932C57.609 386.932 86.6362 409.295 112.042 411.104Z" fill="#1F8184"/>
</g>
<g filter="url(#filter6_d_2_703)">
<path d="M253.278 18.3647L264 188.894L255.959 5.24707L253.278 18.3647Z" fill="#4C4240"/>
<path d="M135.34 47.2235C84.3034 52.625 4 41.9765 4 41.9765L17.4021 215.129C17.4021 215.129 85.1415 199.677 129.979 194.141C181.906 187.73 264 188.894 264 188.894L253.278 18.3647C253.278 18.3647 182.54 42.2281 135.34 47.2235Z" fill="#61574D"/>
<path d="M4 41.9765C4 41.9765 84.3034 52.625 135.34 47.2235C182.54 42.2281 253.278 18.3647 253.278 18.3647L255.959 5.24707L135.34 39.3529L14.7216 31.4824L4 41.9765Z" fill="#4B433E"/>
</g>
<defs>
<filter id="filter0_i_2_703" x="182.393" y="336.174" width="71.3056" height="72.2061" filterUnits="userSpaceOnUse" color-interpolation-filters="sRGB">
<feFlood flood-opacity="0" result="BackgroundImageFix"/>
<feBlend mode="normal" in="SourceGraphic" in2="BackgroundImageFix" result="shape"/>
<feColorMatrix in="SourceAlpha" type="matrix" values="0 0 0 0 0 0 0 0 0 0 0 0 0 0 0 0 0 0 127 0" result="hardAlpha"/>
<feOffset dy="7"/>
<feGaussianBlur stdDeviation="2"/>
<feComposite in2="hardAlpha" operator="arithmetic" k2="-1" k3="1"/>
<feColorMatrix type="matrix" values="0 0 0 0 0 0 0 0 0 0 0 0 0 0 0 0 0 0 0.1 0"/>
<feBlend mode="normal" in2="shape" result="effect1_innerShadow_2_703"/>
</filter>
<filter id="filter1_i_2_703" x="57.6088" y="336.174" width="71.3056" height="72.2061" filterUnits="userSpaceOnUse" color-interpolation-filters="sRGB">
<feFlood flood-opacity="0" result="BackgroundImageFix"/>
<feBlend mode="normal" in="SourceGraphic" in2="BackgroundImageFix" result="shape"/>
<feColorMatrix in="SourceAlpha" type="matrix" values="0 0 0 0 0 0 0 0 0 0 0 0 0 0 0 0 0 0 127 0" result="hardAlpha"/>
<feOffset dy="7"/>
<feGaussianBlur stdDeviation="2"/>
<feComposite in2="hardAlpha" operator="arithmetic" k2="-1" k3="1"/>
<feColorMatrix type="matrix" values="0 0 0 0 0 0 0 0 0 0 0 0 0 0 0 0 0 0 0.1 0"/>
<feBlend mode="normal" in2="shape" result="effect1_innerShadow_2_703"/>
</filter>
<filter id="filter2_i_2_703" x="102.792" y="291.76" width="71.1469" height="122.186" filterUnits="userSpaceOnUse" color-interpolation-filters="sRGB">
<feFlood flood-opacity="0" result="BackgroundImageFix"/>
<feBlend mode="normal" in="SourceGraphic" in2="BackgroundImageFix" result="shape"/>
<feColorMatrix in="SourceAlpha" type="matrix" values="0 0 0 0 0 0 0 0 0 0 0 0 0 0 0 0 0 0 127 0" result="hardAlpha"/>
<feOffset dy="7"/>
<feGaussianBlur stdDeviation="2"/>
<feComposite in2="hardAlpha" operator="arithmetic" k2="-1" k3="1"/>
<feColorMatrix type="matrix" values="0 0 0 0 0 0 0 0 0 0 0 0 0 0 0 0 0 0 0.1 0"/>
<feBlend mode="normal" in2="shape" result="effect1_innerShadow_2_703"/>
</filter>
<filter id="filter3_i_2_703" x="138.445" y="288.588" width="71.1469" height="122.186" filterUnits="userSpaceOnUse" color-interpolation-filters="sRGB">
<feFlood flood-opacity="0" result="BackgroundImageFix"/>
<feBlend mode="normal" in="SourceGraphic" in2="BackgroundImageFix" result="shape"/>
<feColorMatrix in="SourceAlpha" type="matrix" values="0 0 0 0 0 0 0 0 0 0 0 0 0 0 0 0 0 0 127 0" result="hardAlpha"/>
<feOffset dy="7"/>
<feGaussianBlur stdDeviation="2"/>
<feComposite in2="hardAlpha" operator="arithmetic" k2="-1" k3="1"/>
<feColorMatrix type="matrix" values="0 0 0 0 0 0 0 0 0 0 0 0 0 0 0 0 0 0 0.1 0"/>
<feBlend mode="normal" in2="shape" result="effect1_innerShadow_2_703"/>
</filter>
<filter id="filter4_i_2_703" x="145.12" y="373.018" width="96.5948" height="42.6245" filterUnits="userSpaceOnUse" color-interpolation-filters="sRGB">
<feFlood flood-opacity="0" result="BackgroundImageFix"/>
<feBlend mode="normal" in="SourceGraphic" in2="BackgroundImageFix" result="shape"/>
<feColorMatrix in="SourceAlpha" type="matrix" values="0 0 0 0 0 0 0 0 0 0 0 0 0 0 0 0 0 0 127 0" result="hardAlpha"/>
<feOffset dy="7"/>
<feGaussianBlur stdDeviation="2"/>
<feComposite in2="hardAlpha" operator="arithmetic" k2="-1" k3="1"/>
<feColorMatrix type="matrix" values="0 0 0 0 0 0 0 0 0 0 0 0 0 0 0 0 0 0 0.1 0"/>
<feBlend mode="normal" in2="shape" result="effect1_innerShadow_2_703"/>
</filter>
<filter id="filter5_i_2_703" x="57.609" y="373.018" width="96.5948" height="42.6245" filterUnits="userSpaceOnUse" color-interpolation-filters="sRGB">
<feFlood flood-opacity="0" result="BackgroundImageFix"/>
<feBlend mode="normal" in="SourceGraphic" in2="BackgroundImageFix" result="shape"/>
<feColorMatrix in="SourceAlpha" type="matrix" values="0 0 0 0 0 0 0 0 0 0 0 0 0 0 0 0 0 0 127 0" result="hardAlpha"/>
<feOffset dy="7"/>
<feGaussianBlur stdDeviation="2"/>
<feComposite in2="hardAlpha" operator="arithmetic" k2="-1" k3="1"/>
<feColorMatrix type="matrix" values="0 0 0 0 0 0 0 0 0 0 0 0 0 0 0 0 0 0 0.1 0"/>
<feBlend mode="normal" in2="shape" result="effect1_innerShadow_2_703"/>
</filter>
<filter id="filter6_d_2_703" x="0" y="2.24707" width="268" height="217.882" filterUnits="userSpaceOnUse" color-interpolation-filters="sRGB">
<feFlood flood-opacity="0" result="BackgroundImageFix"/>
<feColorMatrix in="SourceAlpha" type="matrix" values="0 0 0 0 0 0 0 0 0 0 0 0 0 0 0 0 0 0 127 0" result="hardAlpha"/>
<feOffset dy="1"/>
<feGaussianBlur stdDeviation="2"/>
<feComposite in2="hardAlpha" operator="out"/>
<feColorMatrix type="matrix" values="0 0 0 0 0 0 0 0 0 0 0 0 0 0 0 0 0 0 0.13 0"/>
<feBlend mode="normal" in2="BackgroundImageFix" result="effect1_dropShadow_2_703"/>
<feBlend mode="normal" in="SourceGraphic" in2="effect1_dropShadow_2_703" result="shape"/>
</filter>
</defs>
</svg>
