<svg width="266" height="252" viewBox="0 0 266 252" fill="none" xmlns="http://www.w3.org/2000/svg">
<g filter="url(#filter0_f_25_472)">
<path d="M31.8613 91.5599C32.0006 90.4059 32.7076 89.5023 33.6947 89.2165L126.781 62.2643C128.572 61.7457 130.473 63.4115 130.541 65.56L132.265 119.681C132.314 121.216 131.382 122.458 130.053 122.629L30.4109 135.479C28.5072 135.724 26.7705 133.721 27.0292 131.578L31.8613 91.5599Z" fill="black" fill-opacity="0.15"/>
</g>
<path d="M45.1698 70.4544L138.739 23.9701C139.969 23.3591 141.457 23.6613 142.351 24.7037L176.815 64.8851C176.815 64.8851 112.599 86.963 71.4515 101.109C59.532 90.7001 45.1698 70.4544 45.1698 70.4544Z" fill="#BD7D4F"/>
<path d="M71.4515 101.109C112.599 86.963 176.815 64.8851 176.815 64.8851L173.754 77.0804C173.517 78.0229 172.868 78.781 171.962 79.1339C162.254 82.917 104.72 105.338 66.6673 120.167C68.5356 112.725 69.5832 108.552 71.4515 101.109Z" fill="#784228"/>
<path d="M45.1698 70.4544C45.1698 70.4544 59.532 90.7001 71.4515 101.109C69.5832 108.552 68.5356 112.725 66.6673 120.167C56.4759 110.777 44.5123 93.8593 41.4354 89.4147C40.9498 88.7132 40.8032 87.8481 41.0109 87.0207L45.1698 70.4544Z" fill="#894F35"/>
<path d="M84.5103 132.877L174.947 80.0179C176.127 79.3284 177.624 79.5232 178.587 80.4918L206.344 108.384C206.344 108.384 147.659 143.879 106.511 158.025C94.5919 147.616 84.5103 132.877 84.5103 132.877Z" fill="#BD7D4F"/>
<path d="M106.511 158.025C147.659 143.879 206.344 108.384 206.344 108.384L201.724 126.79C201.524 127.586 201.043 128.245 200.327 128.646C192.198 133.2 140.053 162.148 101.727 177.083C103.596 169.641 104.643 165.468 106.511 158.025Z" fill="#784228"/>
<path d="M84.5103 132.877C84.5103 132.877 94.5919 147.616 106.511 158.025C104.643 165.468 103.596 169.641 101.727 177.083C91.8413 167.975 83.1859 156.063 80.6352 152.434C80.1448 151.737 79.9942 150.866 80.2019 150.039L84.5103 132.877Z" fill="#894F35"/>
<path d="M116.363 186.455L206.8 133.596C207.98 132.907 209.476 133.102 210.44 134.07L238.197 161.962C238.197 161.962 179.511 197.457 138.364 211.604C126.445 201.194 116.363 186.455 116.363 186.455Z" fill="#BD7D4F"/>
<path d="M138.364 211.604C179.511 197.457 238.197 161.962 238.197 161.962L233.577 180.368C233.377 181.165 232.896 181.823 232.179 182.225C224.05 186.778 171.906 215.726 133.58 230.661C135.448 223.219 136.496 219.046 138.364 211.604Z" fill="#784228"/>
<path d="M116.363 186.455C116.363 186.455 126.445 201.194 138.364 211.604C136.496 219.046 135.448 223.219 133.58 230.661C123.694 221.553 115.039 209.642 112.488 206.013C111.998 205.315 111.847 204.444 112.055 203.617L116.363 186.455Z" fill="#894F35"/>
<defs>
<filter id="filter0_f_25_472" x="17.0035" y="52.1689" width="125.263" height="93.3302" filterUnits="userSpaceOnUse" color-interpolation-filters="sRGB">
<feFlood flood-opacity="0" result="BackgroundImageFix"/>
<feBlend mode="normal" in="SourceGraphic" in2="BackgroundImageFix" result="shape"/>
<feGaussianBlur stdDeviation="5" result="effect1_foregroundBlur_25_472"/>
</filter>
</defs>
</svg>
