<svg width="290" height="175" viewBox="0 0 290 175" fill="none" xmlns="http://www.w3.org/2000/svg">
<g filter="url(#filter0_f_2_663)">
<path d="M279.102 76.9661C279.34 75.5144 278.49 74.1045 277.095 73.637L168.16 37.1273C166.659 36.6242 165.025 37.3742 164.428 38.8405L147.065 81.4892C146.361 83.2161 147.387 85.1593 149.21 85.5528L270.226 111.685C271.903 112.048 273.543 110.931 273.82 109.238L279.102 76.9661Z" fill="black" fill-opacity="0.15"/>
</g>
<path d="M268.726 57.0169L164.745 4.65175C163.904 4.22844 162.914 4.22413 162.07 4.64011L106.804 31.8717C106.804 31.8717 180.292 59.6195 227.38 77.399C245.14 70.9488 268.726 57.0169 268.726 57.0169Z" fill="#BD7D4F"/>
<path d="M227.38 77.399C180.292 59.6195 106.804 31.8717 106.804 31.8717L107.121 41.4333C107.16 42.6098 107.871 43.6496 108.958 44.1002C120.436 48.856 185.08 75.6428 227.91 93.3902C227.703 87.1453 227.587 83.644 227.38 77.399Z" fill="#784228"/>
<path d="M268.726 57.0169C268.726 57.0169 245.14 70.9488 227.38 77.399C227.587 83.644 227.703 87.1453 227.91 93.3902C243.008 87.5706 262.319 76.1775 267.747 72.9064C268.668 72.351 269.202 71.3452 269.166 70.2697L268.726 57.0169Z" fill="#894F35"/>
<path d="M202.14 100.749L103.966 43.7667C103.151 43.2933 102.16 43.231 101.291 43.5986L57.7761 62.0137C57.7761 62.0137 120.585 99.621 167.673 117.4C185.433 110.95 202.14 100.749 202.14 100.749Z" fill="#BD7D4F"/>
<path d="M167.673 117.4C120.585 99.621 57.7761 62.0137 57.7761 62.0137L58.2673 76.8186C58.302 77.8655 58.8612 78.8076 59.7758 79.3181C69.4325 84.7084 125.279 115.605 168.203 133.392C167.996 127.147 167.88 123.645 167.673 117.4Z" fill="#784228"/>
<path d="M202.14 100.749C202.14 100.749 185.433 110.95 167.673 117.4C167.88 123.645 167.996 127.147 168.203 133.392C182.811 127.761 196.712 119.779 201.172 117.132C202.098 116.583 202.632 115.577 202.596 114.502L202.14 100.749Z" fill="#894F35"/>
<path d="M147.364 138.586L49.1909 81.6037C48.3752 81.1302 47.3844 81.0679 46.5158 81.4355L3.00056 99.8506C3.00056 99.8506 65.8096 137.458 112.897 155.237C130.657 148.787 147.364 138.586 147.364 138.586Z" fill="#BD7D4F"/>
<path d="M112.897 155.237C65.8096 137.458 3.00056 99.8506 3.00056 99.8506L3.4917 114.656C3.52642 115.702 4.08562 116.645 5.00026 117.155C14.657 122.545 70.5032 153.442 113.428 171.229C113.221 164.984 113.105 161.482 112.897 155.237Z" fill="#784228"/>
<path d="M147.364 138.586C147.364 138.586 130.657 148.787 112.897 155.237C113.105 161.482 113.221 164.984 113.428 171.229C128.036 165.598 141.936 157.616 146.397 154.969C147.322 154.42 147.856 153.414 147.82 152.338L147.364 138.586Z" fill="#894F35"/>
<defs>
<filter id="filter0_f_2_663" x="136.841" y="26.9712" width="152.3" height="94.7825" filterUnits="userSpaceOnUse" color-interpolation-filters="sRGB">
<feFlood flood-opacity="0" result="BackgroundImageFix"/>
<feBlend mode="normal" in="SourceGraphic" in2="BackgroundImageFix" result="shape"/>
<feGaussianBlur stdDeviation="5" result="effect1_foregroundBlur_2_663"/>
</filter>
</defs>
</svg>
