<svg width="341" height="314" viewBox="0 0 341 314" fill="none" xmlns="http://www.w3.org/2000/svg">
<g filter="url(#filter0_f_28_426)">
<path d="M306.281 118.332C306.203 117.15 305.518 116.192 304.515 115.862L181.58 75.3618C179.824 74.7833 177.877 76.3068 177.687 78.4081L171.197 150.05C171.056 151.604 171.952 152.92 173.309 153.15L306.285 175.657C308.168 175.976 309.974 174.105 309.834 171.982L306.281 118.332Z" fill="black" fill-opacity="0.15"/>
</g>
<path d="M290.257 90.9165L169.091 25.4198C167.913 24.7828 166.455 25.0042 165.519 25.9623L116.331 76.3012C116.331 76.3012 199.734 108.348 253.175 128.882C269.734 116.159 290.257 90.9165 290.257 90.9165Z" fill="#BD7D4F"/>
<path d="M253.175 128.882C199.734 108.348 116.331 76.3012 116.331 76.3012L119.561 92.577C119.753 93.5455 120.356 94.3343 121.262 94.725C132.432 99.5372 208.195 132.179 258.096 153.679C256.175 143.995 255.097 138.565 253.175 128.882Z" fill="#784228"/>
<path d="M290.257 90.9165C290.257 90.9165 269.734 116.159 253.175 128.882C255.097 138.565 256.175 143.995 258.096 153.679C272.558 141.954 290.037 120.275 294.03 115.232C294.57 114.55 294.773 113.674 294.604 112.821L290.257 90.9165Z" fill="#894F35"/>
<path d="M233.523 169.026L117.018 95.4633C115.89 94.7514 114.428 94.8691 113.429 95.7523L73.9953 130.612C73.9953 130.612 149.078 179.613 202.52 200.147C219.078 187.425 233.523 169.026 233.523 169.026Z" fill="#BD7D4F"/>
<path d="M202.52 200.147C149.078 179.613 73.9953 130.612 73.9953 130.612L78.8142 154.895C78.9773 155.717 79.4384 156.409 80.1547 156.844C89.4996 162.515 157.28 203.333 207.441 224.944C205.519 215.26 204.441 209.831 202.52 200.147Z" fill="#784228"/>
<path d="M233.523 169.026C233.523 169.026 219.078 187.425 202.52 200.147C204.441 209.831 205.519 215.26 207.441 224.944C221.537 213.515 234.144 198.231 237.449 194.109C237.993 193.431 238.193 192.558 238.024 191.706L233.523 169.026Z" fill="#894F35"/>
<path d="M187.362 236.177L70.8567 162.615C69.7292 161.903 68.2671 162.021 67.268 162.904L27.8344 197.764C27.8344 197.764 102.918 246.764 156.359 267.298C172.917 254.576 187.362 236.177 187.362 236.177Z" fill="#BD7D4F"/>
<path d="M156.359 267.298C102.918 246.764 27.8344 197.764 27.8344 197.764L32.6533 222.046C32.8164 222.868 33.2775 223.561 33.9938 223.996C43.3387 229.666 111.119 270.484 161.28 292.095C159.358 282.412 158.281 276.982 156.359 267.298Z" fill="#784228"/>
<path d="M187.362 236.177C187.362 236.177 172.917 254.576 156.359 267.298C158.281 276.982 159.358 282.412 161.28 292.095C175.377 280.666 187.983 265.382 191.288 261.261C191.832 260.583 192.032 259.71 191.863 258.857L187.362 236.177Z" fill="#894F35"/>
<defs>
<filter id="filter0_f_28_426" x="161.182" y="65.2381" width="158.659" height="120.455" filterUnits="userSpaceOnUse" color-interpolation-filters="sRGB">
<feFlood flood-opacity="0" result="BackgroundImageFix"/>
<feBlend mode="normal" in="SourceGraphic" in2="BackgroundImageFix" result="shape"/>
<feGaussianBlur stdDeviation="5" result="effect1_foregroundBlur_28_426"/>
</filter>
</defs>
</svg>
